<svg width="256" height="256" viewBox="0 0 256 256" fill="none" xmlns="http://www.w3.org/2000/svg">
<rect width="256" height="256" fill="white"/>
<path d="M63.467 94.472V137.048C63.467 140.92 62.875 144.424 61.691 147.56C60.507 150.696 58.763 153.368 56.459 155.576C54.187 157.784 51.387 159.48 48.059 160.664C44.763 161.848 40.987 162.44 36.731 162.44C32.443 162.44 28.731 161.896 25.595 160.808C22.491 159.688 19.499 158.152 16.619 156.2L22.619 146.504C24.891 148.072 27.019 149.176 29.003 149.816C30.987 150.424 33.243 150.728 35.771 150.728C39.195 150.728 42.043 149.64 44.315 147.464C46.619 145.256 47.771 141.848 47.771 137.24V105.992H27.323V94.472H63.467ZM166.832 127.4C166.832 122.92 166.448 119.272 165.68 116.456C164.944 113.64 163.904 111.464 162.56 109.928C161.248 108.392 159.696 107.336 157.904 106.76C156.112 106.184 154.176 105.896 152.096 105.896H148.736V149.624H152.096C154.272 149.624 156.256 149.288 158.048 148.616C159.872 147.912 161.44 146.744 162.752 145.112C164.064 143.448 165.072 141.176 165.776 138.296C166.48 135.416 166.832 131.784 166.832 127.4ZM183.152 127.4C183.152 132.808 182.576 137.448 181.424 141.32C180.272 145.16 178.656 148.36 176.576 150.92C174.528 153.48 172.144 155.496 169.424 156.968C166.704 158.44 163.776 159.48 160.64 160.088C157.504 160.696 154.272 161 150.944 161H132.992V94.472H149.792C154.048 94.472 158.16 94.92 162.128 95.816C166.128 96.68 169.696 98.296 172.832 100.664C176 103 178.512 106.328 180.368 110.648C182.224 114.936 183.152 120.52 183.152 127.4ZM192.763 161V150.824H199.483V120.104H192.763V110.024H211.051L213.835 121.496C215.659 117.112 217.979 113.848 220.795 111.704C223.643 109.56 227.115 108.488 231.211 108.488C232.939 108.488 234.475 108.632 235.819 108.92C237.163 109.176 238.427 109.544 239.611 110.024L235.003 122.552C234.075 122.296 233.147 122.104 232.219 121.976C231.291 121.848 230.267 121.784 229.147 121.784C225.819 121.784 222.891 123.144 220.363 125.864C217.867 128.584 215.963 132.04 214.651 136.232V150.824H224.731V161H192.763ZM227.275 131.336V116.456L229.531 110.024H239.611L236.779 131.336H227.275Z" fill="black"/>
<path d="M91.8455 161H76.1015V94.472H91.8455V161ZM92.3255 125.48L110.518 94.472H127.03L108.214 124.328L128.854 161H110.614L92.3255 125.48Z" fill="#8356F4"/>
</svg>
